<svg width="25" height="25" viewBox="0 0 30 30" fill="none" xmlns="http://www.w3.org/2000/svg">
<g clip-path="url(#clip0_2108_1563)">
<path d="M25.0195 0H4.98047C2.22983 0 0 2.28335 0 5.1V24.852C0 27.6687 2.22983 29.952 4.98047 29.952H25.0195C27.7702 29.952 30 27.6687 30 24.852V5.1C30 2.28335 27.7702 0 25.0195 0Z" fill="#00005B"/>
<path d="M12.0519 17.92H7.40293L6.45699 20.9345C6.44487 20.9862 6.41649 21.0324 6.37624 21.0659C6.33599 21.0994 6.28609 21.1185 6.23422 21.1202L3.86094 21.12C3.72664 21.12 3.67965 21.0444 3.72008 20.8932L7.74512 9.07216L7.78531 8.94796L7.79867 8.90548L7.82563 8.81668C7.83899 8.77084 7.85235 8.72224 7.86582 8.66956C7.91856 8.39464 7.94551 8.11516 7.94633 7.83496C7.94361 7.81537 7.94538 7.7954 7.9515 7.77663C7.95761 7.75786 7.96791 7.74081 7.98158 7.72682C7.99524 7.71282 8.0119 7.70228 8.03023 7.69601C8.04856 7.68975 8.06806 7.68794 8.08719 7.69072H11.2871C11.3809 7.69072 11.4344 7.72504 11.4481 7.7938L16.0164 20.914C16.0566 21.0514 16.0164 21.1202 15.8957 21.12H13.2794C13.2345 21.1251 13.1893 21.1133 13.1522 21.0868C13.1152 21.0602 13.0889 21.0208 13.0782 20.9758L12.0519 17.92ZM8.1275 15.3783H11.3073L11.2619 15.225L11.1891 14.9824L11.0826 14.6349L10.8781 13.9788L10.6834 13.3484L10.321 12.1737C10.2209 11.8494 10.1248 11.5239 10.0327 11.1971L9.92985 10.8256L9.81875 10.4184L9.71727 10.0408H9.69711C9.59646 10.5355 9.47383 11.0252 9.32961 11.5084L9.19367 11.9552L8.86672 13.0352L8.70102 13.5854C8.67102 13.6847 8.64125 13.783 8.61137 13.8801L8.52231 14.1678L8.43371 14.4489L8.34559 14.723L8.25793 14.9902C8.21434 15.1222 8.17074 15.2514 8.1275 15.3783ZM23.4226 16.7468H19.458C19.5066 17.1484 19.6368 17.5352 19.8404 17.8821C20.0654 18.2256 20.3837 18.4943 20.756 18.6549C21.2606 18.8785 21.8063 18.988 22.3559 18.976C22.792 18.9674 23.2265 18.9186 23.654 18.8301C24.0364 18.7772 24.4111 18.6772 24.77 18.5322C24.837 18.4775 24.8708 18.5116 24.8708 18.6352V20.593C24.8741 20.6464 24.8636 20.6997 24.8404 20.7476C24.8175 20.785 24.7865 20.8167 24.75 20.8403C24.3518 21.0209 23.9328 21.1488 23.5031 21.2207C22.9193 21.333 22.326 21.3847 21.732 21.3752C20.8091 21.3752 20.0311 21.2333 19.398 20.9498L19.3371 20.9218C18.7285 20.6473 18.191 20.2309 17.7675 19.706C17.3718 19.2113 17.0774 18.6401 16.902 18.0264C16.7284 17.4207 16.6404 16.7927 16.6406 16.1614C16.6388 15.4721 16.7441 14.7869 16.9525 14.1315C17.1533 13.4922 17.4709 12.8978 17.8883 12.3798C18.3 11.8679 18.8149 11.4531 19.3977 11.1639C19.9879 10.8687 20.6857 10.7627 21.4906 10.7627C22.1582 10.7454 22.8214 10.8791 23.4328 11.1543C23.9468 11.3788 24.3994 11.7288 24.7509 12.1737C25.0806 12.6094 25.3327 13.1012 25.4955 13.6265C25.6541 14.1328 25.7355 14.6611 25.737 15.1928C25.737 15.4952 25.727 15.77 25.7069 16.0172L25.689 16.2288L25.6702 16.4297L25.6591 16.5315C25.6583 16.5386 25.6574 16.5458 25.6565 16.553C25.6513 16.5984 25.63 16.6403 25.5966 16.6706C25.5632 16.701 25.5201 16.7178 25.4755 16.7178L25.4203 16.719L25.3515 16.7226L25.2979 16.7266L25.1728 16.7375L25.0629 16.7487C25.033 16.7519 25.0019 16.7549 24.9697 16.7577L24.87 16.7657L24.7634 16.7729L24.6504 16.7789L24.5306 16.7841L24.4681 16.7862L24.3384 16.7898C24.2101 16.7931 24.0786 16.7849 23.9437 16.7748L23.7391 16.7595C23.6338 16.7516 23.5282 16.7473 23.4226 16.7468ZM19.458 14.8694H22.1986L22.432 14.8678L22.5907 14.8655L22.6934 14.8631L22.8088 14.859C22.912 14.8485 23.0116 14.8147 23.1005 14.76V14.6364C23.0965 14.4753 23.0694 14.3156 23.0202 14.1624C22.9116 13.8108 22.6933 13.5055 22.3988 13.2932C22.1043 13.081 21.7499 12.9736 21.3901 12.9876C21.0514 12.9667 20.714 13.0471 20.4192 13.2191C20.1243 13.3911 19.8848 13.6472 19.7297 13.9563C19.5918 14.2438 19.5001 14.552 19.458 14.8694Z" fill="#9999FF"/>
</g>
<defs>
<clipPath id="clip0_2108_1563">
<rect width="30" height="30" fill="white"/>
</clipPath>
</defs>
</svg>
