<svg xmlns="http://www.w3.org/2000/svg" width="32" height="32" fill="none" viewBox="0 0 40 40">
  <path fill="url(#a)" fill-rule="evenodd"
    d="M2 10.02c0-.95.5-1.83 1.33-2.3L16.08.36a2.66 2.66 0 0 1 2.66 0l12.75 7.36a2.66 2.66 0 0 1 1.33 2.3v6l-5-2.89a2.66 2.66 0 0 0-2.66 0l-9.51 5.48a2.66 2.66 0 0 0-1.34 2.3v10.95c0 .9.45 1.72 1.19 2.21L3.33 27.05A2.66 2.66 0 0 1 2 24.75V10.02z"
    clip-rule="evenodd" />
  <path fill="#96F" fill-rule="evenodd"
    d="m15.5 34.07.58.34c.82.48 1.84.48 2.66 0l12.75-7.36a2.66 2.66 0 0 0 1.33-2.3v-8.72l4.47 2.58a2.66 2.66 0 0 1 1.33 2.3v10.95c0 .95-.5 1.83-1.33 2.3l-9.48 5.48c-.82.48-1.83.48-2.65 0l-9.51-5.47-.15-.1z"
    clip-rule="evenodd" />
  <path fill="url(#b)" fill-rule="evenodd"
    d="m32.82 16.03-5-2.9a2.66 2.66 0 0 0-2.66 0l-9.51 5.48a2.66 2.66 0 0 0-1.34 2.3v10.95c0 .9.45 1.72 1.19 2.21l.58.34c.82.48 1.84.48 2.66 0l12.75-7.36a2.66 2.66 0 0 0 1.33-2.3v-8.72z"
    clip-rule="evenodd" />
  <defs>
    <linearGradient id="a" x1="17.41" x2="17" y1="2.24" y2="32.18" gradientUnits="userSpaceOnUse">
      <stop stop-color="#11EFE3" />
      <stop offset=".33" stop-color="#15E8E2" />
      <stop offset=".74" stop-color="#1FD3E0" />
      <stop offset="1" stop-color="#21CFE0" />
    </linearGradient>
    <linearGradient id="b" x1="21.95" x2="30.59" y1="40.81" y2="9.56" gradientUnits="userSpaceOnUse">
      <stop stop-color="#0048E5" />
      <stop offset=".64" stop-color="#625AF5" />
      <stop offset="1" stop-color="#8A62FC" />
    </linearGradient>
  </defs>
</svg>