<svg xmlns="http://www.w3.org/2000/svg" width="25" height="25" fill="none" viewBox="0 0 30 30">
  <g clip-path="url(#a)">
    <path fill="#333" d="M22.9688 0H7.03125C3.148 0 0 3.148 0 7.03125V22.9688C0 26.852 3.148 30 7.03125 30H22.9688C26.852 30 30 26.852 30 22.9688V7.03125C30 3.148 26.852 0 22.9688 0Z"/>
    <mask id="b" width="16" height="24" x="7" y="3" maskUnits="userSpaceOnUse" style="mask-type:luminance">
      <path fill="#fff" d="M7.14844 3.28125H22.7766V26.7188H7.14844V3.28125Z"/>
    </mask>
    <g mask="url(#b)">
      <path fill="#0ACF83" d="M11.0562 26.7188c2.1563 0 3.9062-1.75 3.9062-3.9062v-3.9064h-3.9062c-2.15622 0-3.9063 1.7501-3.9063 3.9064 0 2.1562 1.75008 3.9062 3.9063 3.9062Z"/>
      <path fill="#A259FF" d="M7.1499 15c0-2.1563 1.75008-3.9062 3.9063-3.9062h3.9062v7.8124h-3.9062c-2.15622 0-3.9063-1.75-3.9063-3.9062Z"/>
      <path fill="#F24E1E" d="M7.1499 7.18746c0-2.15625 1.75008-3.90621 3.9063-3.90621h3.9062v7.81255h-3.9062c-2.15622 0-3.9063-1.75009-3.9063-3.90634Z"/>
      <path fill="#FF7262" d="M14.9624 3.28125h3.9062c2.1563 0 3.9063 1.74996 3.9063 3.90621s-1.75 3.90634-3.9063 3.90634h-3.9062V3.28125Z"/>
      <path fill="#1ABCFE" d="M22.7749 15c0 2.1562-1.75 3.9062-3.9063 3.9062-2.1562 0-3.9062-1.75-3.9062-3.9062 0-2.1563 1.75-3.9062 3.9062-3.9062 2.1563 0 3.9063 1.7499 3.9063 3.9062Z"/>
    </g>
  </g>
  <defs>
    <clipPath id="a">
      <path fill="#fff" d="M0 0h30v30H0z"/>
    </clipPath>
  </defs>
</svg>
