<svg xmlns="http://www.w3.org/2000/svg" width="32" height="32" fill="none" viewBox="0 0 40 40">
  <path fill="#00D924"
    d="M12.5001 1c-1.3807 0-2.5 1.11929-2.5 2.5v32.8314c0 1.1314-.75982 2.1218-1.85264 2.4148L36.1472 31.24c1.0929-.2928 1.8529-1.2833 1.8529-2.4148V3.5c0-1.38071-1.1193-2.5-2.5-2.5h-23Z" />
  <path fill="url(#a)"
    d="M1.25338 24.5476c-1.1958041.6904-1.605472 2.2192-.915042 3.415L5.81522 37.449c.56575.9799 1.71916 1.4577 2.81212 1.1648l26.14706-7.0062-10.1875-17.645c-.69-1.1958-2.2193-1.6055-3.4151-.915l-19.91842 11.5Z" />
  <path fill="url(#b)"
    d="M8.40173 38.6633c.07537-.0129.15064-.0294.22564-.0495l26.14703-7.0062-10.1875-17.645c-.6899-1.1958-2.2192-1.6055-3.415-.915l-11.1717 6.45v16.8338c0 1.0414-.64382 1.9633-1.59847 2.3319Z" />
  <defs>
    <linearGradient id="a" x1="17.3897" x2="17.3893" y1="20.25" y2="38" gradientUnits="userSpaceOnUse">
      <stop stop-color="#FFD748" />
      <stop offset="1" stop-color="#FFC148" />
    </linearGradient>
    <linearGradient id="b" x1="21.5889" x2="21.5881" y1="12.7122" y2="38.6633" gradientUnits="userSpaceOnUse">
      <stop stop-color="#00A600" />
      <stop offset="1" stop-color="#00D924" />
    </linearGradient>
  </defs>
</svg>