<svg xmlns="http://www.w3.org/2000/svg" width="25" height="25" fill="none" viewBox="0 0 30 30">
  <g clip-path="url(#a)">
    <path fill="#49021F" d="M25.0195 0H4.98047C2.22983 0 0 2.28335 0 5.1v19.752c0 2.8167 2.22983 5.1 4.98047 5.1H25.0195c2.7507 0 4.9805-2.2833 4.9805-5.1V5.1C30 2.28335 27.7702 0 25.0195 0Z"/>
    <path fill="#F36" d="M10.8949 7.83539V20.9627c0 .1375-.0603.2061-.1812.2061H8.27858c-.10747 0-.16114-.0687-.1609-.2061V7.83539c0-.1098.06035-.16476.18105-.16488h2.43517c.0205-.00297.0413-.00134.0611.00479.0198.00612.0381.01659.0535.03067.0155.01408.0277.03144.036.05087.0082.01942.0122.04046.0117.06163l-.0013.01692Zm7.3343 13.53811-.1296.0014c-.9263.0144-1.8441-.1827-2.6867-.577-.7849-.372-1.441-.9793-1.8816-1.7414-.4452-.7571-.6732-1.7008-.6839-2.8308l-.0004-.0852c-.0075-.9459.2285-1.877.6844-2.6997.4569-.8154 1.1234-1.4871 1.9269-1.9419l.0654-.0365c.8719-.4945 1.9251-.7419 3.1596-.7419l.026.0002.0578.0013.0654.0026.073.0039.0805.0051.088.0066.1989.0167.0543.0048V6.70211c0-.096.0404-.14436.1208-.14436h2.5358c.0164-.00241.0331-.00088.0488.00448.0157.00536.03.0144.0417.02639.0117.012.0206.02662.0258.04272.0052.01609.0067.03322.0044.05001V18.8607c.0008.2545.0109.5088.0302.7625l.019.2657.0168.2473.0145.2289c.0025.0428-.0077.0854-.0293.1221-.0215.0368-.0534.0661-.0914.084-.6542.2794-1.3356.4866-2.0326.6181-.5948.1125-1.1977.1741-1.8024.1842h-.0001Zm1.098-2.554v-5.626c-.1087-.0302-.2198-.0508-.3319-.0618-.1371-.0141-.2749-.021-.4127-.0206-.4884-.005-.971.108-1.4087.3297-.4264.2171-.7904.5437-1.0565.948-.2752.4121-.4128.9549-.4127 1.6281-.0097.4492.0619.8963.2113 1.3188.1217.3404.3139.6498.5636.9068.239.2364.5284.4128.8453.5152.3347.111.6845.1667 1.0364.165.1877 0 .3621-.007.5232-.0208.1285-.0099.2559-.0316.3806-.0648l.0621-.0176Z"/>
  </g>
  <defs>
    <clipPath id="a">
      <path fill="#fff" d="M0 0h30v30H0z"/>
    </clipPath>
  </defs>
</svg>
