<svg xmlns="http://www.w3.org/2000/svg" width="25" height="25" fill="none" viewBox="0 0 30 30">
  <g clip-path="url(#a)">
    <path fill="#470137"
      d="M25.02 0H4.98C2.23 0 0 2.283 0 5.1v19.752c0 2.817 2.23 5.1 4.98 5.1h20.04c2.75 0 4.98-2.283 4.98-5.1V5.1C30 2.283 27.77 0 25.02 0Z" />
    <path fill="#FF61F6"
      d="m15.77 7.877-3.742 6.326 4.004 6.719a.216.216 0 0 1 .02.154c-.006.022-.019.028-.04.029h-.022l-.028-.001c-.015 0-.032 0-.05.004h-2.888l-.056-.002c-.156-.004-.268-.027-.337-.143-.267-.533-.535-1.066-.805-1.597a57.123 57.123 0 0 0-.743-1.413l-.112-.205a94.75 94.75 0 0 1-.896-1.67h-.02a64.47 64.47 0 0 1-.835 1.65 386.5 386.5 0 0 0-.855 1.638c-.282.543-.57 1.082-.865 1.617-.048.11-.127.132-.237.136H4.461l-.012.001-.04.004c-.022.001-.035-.004-.039-.038a.211.211 0 0 1 .03-.144l3.884-6.533-3.783-6.553c-.04-.055-.047-.1-.02-.134a.147.147 0 0 1 .12-.051H7.44a.412.412 0 0 1 .181.03c.048.029.09.067.12.114.242.55.51 1.1.806 1.649.293.545.591 1.088.896 1.628.299.53.578 1.074.835 1.628h.02c.263-.554.535-1.104.815-1.649.275-.536.557-1.075.845-1.618.285-.535.563-1.075.835-1.617a.32.32 0 0 1 .08-.134.287.287 0 0 1 .162-.031h2.636a.113.113 0 0 1 .073.005.121.121 0 0 1 .038.19l-.01.01Zm5.915 13.496-.138.002a6.112 6.112 0 0 1-2.687-.577 4.31 4.31 0 0 1-1.882-1.741c-.444-.756-.672-1.698-.684-2.825v-.091a5.482 5.482 0 0 1 .684-2.7 5.084 5.084 0 0 1 1.923-1.94l.07-.038c.871-.495 1.925-.742 3.16-.742h.053l.062.002.069.003.077.005.129.01.146.011.107.01v-4.06c0-.096.04-.144.12-.144h2.537a.105.105 0 0 1 .09.03.11.11 0 0 1 .03.093v12.18c0 .204.008.424.024.66l.037.535.02.31a.217.217 0 0 1-.03.121.21.21 0 0 1-.09.084 9.8 9.8 0 0 1-2.034.618 10.66 10.66 0 0 1-1.793.184Zm1.09-2.553v-5.627c-.11-.03-.22-.05-.333-.061a3.921 3.921 0 0 0-.413-.02 3.047 3.047 0 0 0-1.408.329c-.427.217-.79.543-1.057.948-.265.398-.403.917-.412 1.559v.069c-.01.45.061.896.21 1.319.123.34.315.65.565.907.239.236.528.412.845.515.334.11.684.166 1.036.165.188 0 .362-.007.523-.021a2.11 2.11 0 0 0 .381-.065l.062-.017Z" />
  </g>
  <defs>
    <clipPath id="a">
      <path fill="#fff" d="M0 0h30v30H0z" />
    </clipPath>
  </defs>
</svg>